<?xml version="1.0" encoding="UTF-8"?>
<svg width="50px" height="50px" viewBox="0 0 50 50" version="1.1" xmlns="http://www.w3.org/2000/svg" xmlns:xlink="http://www.w3.org/1999/xlink">
    <!-- Generator: Sketch 53.2 (72643) - https://sketchapp.com -->
    <title>Group 4</title>
    <desc>Created with Sketch.</desc>
    <defs>
        <path d="M14,2 L14,0 L16,0 L16,2 L18,2 L18,4 L16,4 L16,6 L14,6 L14,4 L12,4 L12,2 L14,2 Z M10,2 L10,4 L2.5,4 C2.22385763,4 2,4.22385763 2,4.5 L2,11.5 C2,11.7761424 2.22385763,12 2.5,12 L5,12 L5,13.5 L7.5,12 L13.5,12 C13.7761424,12 14,11.7761424 14,11.5 L14,8 L16,8 L16,12 C16,13.1045695 15.1045695,14 14,14 L8,14 L3,17 L3,14 L2,14 C0.8954305,14 1.3527075e-16,13.1045695 0,12 L0,4 C-1.3527075e-16,2.8954305 0.8954305,2 2,2 L10,2 Z" id="path-1"></path>
    </defs>
    <g id="2/7/18-Half-Way-Modal" stroke="none" stroke-width="1" fill="none" fill-rule="evenodd">
        <g id="Discussion-Empty-State" transform="translate(-1083.000000, -105.000000)">
            <g id="Group-18-Copy" transform="translate(993.000000, 80.000000)">
                <g id="Group-16">
                    <g id="Group-4" transform="translate(90.000000, 25.000000)">
                        <circle id="Oval" stroke="#CFCFCF" cx="25" cy="25" r="24.5"></circle>
                        <g id="Group-17" transform="translate(17.000000, 17.000000)">
                            <g id="Normal">
                                <mask id="mask-2" fill="white">
                                    <use xlink:href="#path-1"></use>
                                </mask>
                                <use id="Mask" fill="#000000" xlink:href="#path-1"></use>
                                <g mask="url(#mask-2)" fill="#787878" id="Rectangle-5">
                                    <g transform="translate(0.000000, -1.000000)">
                                        <rect x="0" y="0" width="18" height="18"></rect>
                                    </g>
                                </g>
                            </g>
                        </g>
                    </g>
                </g>
            </g>
        </g>
    </g>
</svg>